<svg width="139" height="45" viewBox="0 0 139 45" fill="none" xmlns="http://www.w3.org/2000/svg">
    <path d="M25.6833 10V8.752H26.9053V2.148H25.6833V0.899999H29.3233C30.5366 0.899999 31.4639 1.20767 32.1053 1.823C32.7553 2.43833 33.0803 3.36567 33.0803 4.605V6.308C33.0803 7.54733 32.7553 8.47467 32.1053 9.09C31.4639 9.69667 30.5366 10 29.3233 10H25.6833ZM28.3223 8.726H29.3363C30.1249 8.726 30.7099 8.52667 31.0913 8.128C31.4726 7.72933 31.6633 7.13567 31.6633 6.347V4.553C31.6633 3.75567 31.4726 3.162 31.0913 2.772C30.7099 2.382 30.1249 2.187 29.3363 2.187H28.3223V8.726ZM37.6438 10.182C36.9938 10.182 36.4261 10.0477 35.9408 9.779C35.4554 9.50167 35.0741 9.116 34.7968 8.622C34.5281 8.11933 34.3938 7.53867 34.3938 6.88V6.724C34.3938 6.05667 34.5281 5.476 34.7968 4.982C35.0654 4.47933 35.4381 4.09367 35.9148 3.825C36.4001 3.54767 36.9591 3.409 37.5918 3.409C38.2071 3.409 38.7444 3.54767 39.2038 3.825C39.6718 4.09367 40.0358 4.47067 40.2958 4.956C40.5558 5.44133 40.6858 6.009 40.6858 6.659V7.166H35.7588C35.7761 7.72933 35.9624 8.18 36.3178 8.518C36.6818 8.84733 37.1324 9.012 37.6698 9.012C38.1724 9.012 38.5494 8.89933 38.8008 8.674C39.0608 8.44867 39.2601 8.18867 39.3988 7.894L40.5038 8.466C40.3824 8.70867 40.2048 8.96433 39.9708 9.233C39.7454 9.50167 39.4464 9.727 39.0738 9.909C38.7011 10.091 38.2244 10.182 37.6438 10.182ZM35.7718 6.139H39.3208C39.2861 5.65367 39.1128 5.27667 38.8008 5.008C38.4888 4.73067 38.0814 4.592 37.5788 4.592C37.0761 4.592 36.6644 4.73067 36.3438 5.008C36.0318 5.27667 35.8411 5.65367 35.7718 6.139ZM45.2746 10.182C44.6592 10.182 44.1002 10.052 43.5976 9.792C43.1036 9.532 42.7092 9.155 42.4146 8.661C42.1286 8.167 41.9856 7.57333 41.9856 6.88V6.711C41.9856 6.01767 42.1286 5.42833 42.4146 4.943C42.7092 4.449 43.1036 4.072 43.5976 3.812C44.1002 3.54333 44.6592 3.409 45.2746 3.409C45.8899 3.409 46.4142 3.52167 46.8476 3.747C47.2809 3.97233 47.6276 4.27133 47.8876 4.644C48.1562 5.01667 48.3296 5.42833 48.4076 5.879L47.1076 6.152C47.0642 5.866 46.9732 5.606 46.8346 5.372C46.6959 5.138 46.5009 4.95167 46.2496 4.813C45.9982 4.67433 45.6819 4.605 45.3006 4.605C44.9279 4.605 44.5899 4.69167 44.2866 4.865C43.9919 5.02967 43.7579 5.27233 43.5846 5.593C43.4112 5.905 43.3246 6.28633 43.3246 6.737V6.854C43.3246 7.30467 43.4112 7.69033 43.5846 8.011C43.7579 8.33167 43.9919 8.57433 44.2866 8.739C44.5899 8.90367 44.9279 8.986 45.3006 8.986C45.8639 8.986 46.2929 8.843 46.5876 8.557C46.8822 8.26233 47.0686 7.88967 47.1466 7.439L48.4466 7.738C48.3426 8.18 48.1562 8.58733 47.8876 8.96C47.6276 9.33267 47.2809 9.63167 46.8476 9.857C46.4142 10.0737 45.8899 10.182 45.2746 10.182ZM52.9289 10.182C52.2789 10.182 51.7113 10.0477 51.2259 9.779C50.7406 9.50167 50.3593 9.116 50.0819 8.622C49.8133 8.11933 49.6789 7.53867 49.6789 6.88V6.724C49.6789 6.05667 49.8133 5.476 50.0819 4.982C50.3506 4.47933 50.7233 4.09367 51.1999 3.825C51.6853 3.54767 52.2443 3.409 52.8769 3.409C53.4923 3.409 54.0296 3.54767 54.4889 3.825C54.9569 4.09367 55.3209 4.47067 55.5809 4.956C55.8409 5.44133 55.9709 6.009 55.9709 6.659V7.166H51.0439C51.0613 7.72933 51.2476 8.18 51.6029 8.518C51.9669 8.84733 52.4176 9.012 52.9549 9.012C53.4576 9.012 53.8346 8.89933 54.0859 8.674C54.3459 8.44867 54.5453 8.18867 54.6839 7.894L55.7889 8.466C55.6676 8.70867 55.4899 8.96433 55.2559 9.233C55.0306 9.50167 54.7316 9.727 54.3589 9.909C53.9863 10.091 53.5096 10.182 52.9289 10.182ZM51.0569 6.139H54.6059C54.5713 5.65367 54.3979 5.27667 54.0859 5.008C53.7739 4.73067 53.3666 4.592 52.8639 4.592C52.3613 4.592 51.9496 4.73067 51.6289 5.008C51.3169 5.27667 51.1263 5.65367 51.0569 6.139ZM57.5827 10V3.591H58.8957V4.553H59.1037C59.2251 4.293 59.4417 4.05033 59.7537 3.825C60.0657 3.59967 60.5294 3.487 61.1447 3.487C61.6301 3.487 62.0591 3.59533 62.4317 3.812C62.8131 4.02867 63.1121 4.33633 63.3287 4.735C63.5454 5.125 63.6537 5.59733 63.6537 6.152V10H62.3147V6.256C62.3147 5.70133 62.1761 5.294 61.8987 5.034C61.6214 4.76533 61.2401 4.631 60.7547 4.631C60.2001 4.631 59.7537 4.813 59.4157 5.177C59.0864 5.541 58.9217 6.06967 58.9217 6.763V10H57.5827ZM67.808 10C67.418 10 67.106 9.883 66.872 9.649C66.6467 9.415 66.534 9.103 66.534 8.713V4.722H64.766V3.591H66.534V1.472H67.873V3.591H69.784V4.722H67.873V8.479C67.873 8.739 67.9944 8.869 68.237 8.869H69.576V10H67.808ZM71.3571 10V3.591H72.6701V4.345H72.8781C72.9821 4.07633 73.1468 3.88133 73.3721 3.76C73.6061 3.63 73.8921 3.565 74.2301 3.565H74.9971V4.774H74.1781C73.7448 4.774 73.3895 4.89533 73.1121 5.138C72.8348 5.372 72.6961 5.736 72.6961 6.23V10H71.3571ZM78.1958 10.182C77.7364 10.182 77.3248 10.104 76.9608 9.948C76.6054 9.792 76.3194 9.56233 76.1028 9.259C75.8948 8.95567 75.7908 8.58733 75.7908 8.154C75.7908 7.712 75.8948 7.348 76.1028 7.062C76.3194 6.76733 76.6098 6.54633 76.9738 6.399C77.3464 6.25167 77.7668 6.178 78.2348 6.178H80.1848V5.762C80.1848 5.38933 80.0721 5.09033 79.8468 4.865C79.6214 4.63967 79.2748 4.527 78.8068 4.527C78.3474 4.527 77.9964 4.63533 77.7538 4.852C77.5111 5.06867 77.3508 5.35033 77.2728 5.697L76.0248 5.294C76.1288 4.94733 76.2934 4.63533 76.5188 4.358C76.7528 4.072 77.0604 3.84233 77.4418 3.669C77.8231 3.49567 78.2824 3.409 78.8198 3.409C79.6518 3.409 80.3061 3.62133 80.7828 4.046C81.2594 4.47067 81.4978 5.073 81.4978 5.853V8.492C81.4978 8.752 81.6191 8.882 81.8618 8.882H82.4078V10H81.4068C81.1034 10 80.8564 9.922 80.6658 9.766C80.4751 9.61 80.3798 9.39767 80.3798 9.129V9.09H80.1848C80.1154 9.22 80.0114 9.37167 79.8728 9.545C79.7341 9.71833 79.5304 9.87 79.2618 10C78.9931 10.1213 78.6378 10.182 78.1958 10.182ZM78.3908 9.077C78.9281 9.077 79.3614 8.92533 79.6908 8.622C80.0201 8.31 80.1848 7.88533 80.1848 7.348V7.218H78.3128C77.9574 7.218 77.6714 7.296 77.4548 7.452C77.2381 7.59933 77.1297 7.82033 77.1297 8.115C77.1297 8.40967 77.2424 8.64367 77.4678 8.817C77.6931 8.99033 78.0008 9.077 78.3908 9.077ZM83.7097 10V0.899999H85.0487V10H83.7097ZM87.0359 10V3.591H88.3749V10H87.0359ZM87.7119 2.72C87.4519 2.72 87.2309 2.63767 87.0489 2.473C86.8755 2.29967 86.7889 2.07867 86.7889 1.81C86.7889 1.54133 86.8755 1.32467 87.0489 1.16C87.2309 0.986666 87.4519 0.899999 87.7119 0.899999C87.9805 0.899999 88.2015 0.986666 88.3749 1.16C88.5482 1.32467 88.6349 1.54133 88.6349 1.81C88.6349 2.07867 88.5482 2.29967 88.3749 2.473C88.2015 2.63767 87.9805 2.72 87.7119 2.72ZM90.102 10V8.362L93.885 4.904V4.722H90.232V3.591H95.341V5.242L91.545 8.7V8.869H95.445V10H90.102ZM99.8635 10.182C99.2135 10.182 98.6458 10.0477 98.1605 9.779C97.6752 9.50167 97.2938 9.116 97.0165 8.622C96.7478 8.11933 96.6135 7.53867 96.6135 6.88V6.724C96.6135 6.05667 96.7478 5.476 97.0165 4.982C97.2852 4.47933 97.6578 4.09367 98.1345 3.825C98.6198 3.54767 99.1788 3.409 99.8115 3.409C100.427 3.409 100.964 3.54767 101.424 3.825C101.892 4.09367 102.256 4.47067 102.516 4.956C102.776 5.44133 102.906 6.009 102.906 6.659V7.166H97.9785C97.9958 7.72933 98.1822 8.18 98.5375 8.518C98.9015 8.84733 99.3522 9.012 99.8895 9.012C100.392 9.012 100.769 8.89933 101.021 8.674C101.281 8.44867 101.48 8.18867 101.619 7.894L102.724 8.466C102.602 8.70867 102.425 8.96433 102.191 9.233C101.965 9.50167 101.666 9.727 101.294 9.909C100.921 10.091 100.444 10.182 99.8635 10.182ZM97.9915 6.139H101.541C101.506 5.65367 101.333 5.27667 101.021 5.008C100.709 4.73067 100.301 4.592 99.7985 4.592C99.2958 4.592 98.8842 4.73067 98.5635 5.008C98.2515 5.27667 98.0608 5.65367 97.9915 6.139ZM107.169 10.182C106.641 10.182 106.151 10.052 105.7 9.792C105.25 9.532 104.886 9.15933 104.608 8.674C104.34 8.18 104.205 7.58633 104.205 6.893V6.698C104.205 6.01333 104.34 5.424 104.608 4.93C104.877 4.436 105.237 4.059 105.687 3.799C106.138 3.539 106.632 3.409 107.169 3.409C107.585 3.409 107.932 3.461 108.209 3.565C108.495 3.669 108.729 3.80333 108.911 3.968C109.093 4.124 109.232 4.28867 109.327 4.462H109.535V0.899999H110.874V10H109.561V9.09H109.353C109.189 9.36733 108.937 9.61867 108.599 9.844C108.27 10.0693 107.793 10.182 107.169 10.182ZM107.546 9.012C108.127 9.012 108.604 8.82567 108.976 8.453C109.358 8.08033 109.548 7.54733 109.548 6.854V6.737C109.548 6.05233 109.362 5.52367 108.989 5.151C108.617 4.77833 108.136 4.592 107.546 4.592C106.974 4.592 106.498 4.77833 106.116 5.151C105.744 5.52367 105.557 6.05233 105.557 6.737V6.854C105.557 7.54733 105.744 8.08033 106.116 8.453C106.498 8.82567 106.974 9.012 107.546 9.012ZM118.148 10.182C117.689 10.182 117.277 10.104 116.913 9.948C116.558 9.792 116.272 9.56233 116.055 9.259C115.847 8.95567 115.743 8.58733 115.743 8.154C115.743 7.712 115.847 7.348 116.055 7.062C116.272 6.76733 116.562 6.54633 116.926 6.399C117.299 6.25167 117.719 6.178 118.187 6.178H120.137V5.762C120.137 5.38933 120.024 5.09033 119.799 4.865C119.574 4.63967 119.227 4.527 118.759 4.527C118.3 4.527 117.949 4.63533 117.706 4.852C117.463 5.06867 117.303 5.35033 117.225 5.697L115.977 5.294C116.081 4.94733 116.246 4.63533 116.471 4.358C116.705 4.072 117.013 3.84233 117.394 3.669C117.775 3.49567 118.235 3.409 118.772 3.409C119.604 3.409 120.258 3.62133 120.735 4.046C121.212 4.47067 121.45 5.073 121.45 5.853V8.492C121.45 8.752 121.571 8.882 121.814 8.882H122.36V10H121.359C121.056 10 120.809 9.922 120.618 9.766C120.427 9.61 120.332 9.39767 120.332 9.129V9.09H120.137C120.068 9.22 119.964 9.37167 119.825 9.545C119.686 9.71833 119.483 9.87 119.214 10C118.945 10.1213 118.59 10.182 118.148 10.182ZM118.343 9.077C118.88 9.077 119.314 8.92533 119.643 8.622C119.972 8.31 120.137 7.88533 120.137 7.348V7.218H118.265C117.91 7.218 117.624 7.296 117.407 7.452C117.19 7.59933 117.082 7.82033 117.082 8.115C117.082 8.40967 117.195 8.64367 117.42 8.817C117.645 8.99033 117.953 9.077 118.343 9.077ZM123.662 10V3.591H124.975V4.553H125.183C125.304 4.293 125.521 4.05033 125.833 3.825C126.145 3.59967 126.608 3.487 127.224 3.487C127.709 3.487 128.138 3.59533 128.511 3.812C128.892 4.02867 129.191 4.33633 129.408 4.735C129.624 5.125 129.733 5.59733 129.733 6.152V10H128.394V6.256C128.394 5.70133 128.255 5.294 127.978 5.034C127.7 4.76533 127.319 4.631 126.834 4.631C126.279 4.631 125.833 4.813 125.495 5.177C125.165 5.541 125.001 6.06967 125.001 6.763V10H123.662ZM134.312 10.182C133.783 10.182 133.294 10.052 132.843 9.792C132.392 9.532 132.028 9.15933 131.751 8.674C131.482 8.18 131.348 7.58633 131.348 6.893V6.698C131.348 6.01333 131.482 5.424 131.751 4.93C132.02 4.436 132.379 4.059 132.83 3.799C133.281 3.539 133.775 3.409 134.312 3.409C134.728 3.409 135.075 3.461 135.352 3.565C135.638 3.669 135.872 3.80333 136.054 3.968C136.236 4.124 136.375 4.28867 136.47 4.462H136.678V0.899999H138.017V10H136.704V9.09H136.496C136.331 9.36733 136.08 9.61867 135.742 9.844C135.413 10.0693 134.936 10.182 134.312 10.182ZM134.689 9.012C135.27 9.012 135.746 8.82567 136.119 8.453C136.5 8.08033 136.691 7.54733 136.691 6.854V6.737C136.691 6.05233 136.505 5.52367 136.132 5.151C135.759 4.77833 135.278 4.592 134.689 4.592C134.117 4.592 133.64 4.77833 133.259 5.151C132.886 5.52367 132.7 6.05233 132.7 6.737V6.854C132.7 7.54733 132.886 8.08033 133.259 8.453C133.64 8.82567 134.117 9.012 134.689 9.012ZM63.3836 26V16.9H64.7876V26H63.3836ZM66.7234 26V19.591H68.0364V20.553H68.2444C68.3657 20.293 68.5824 20.0503 68.8944 19.825C69.2064 19.5997 69.67 19.487 70.2854 19.487C70.7707 19.487 71.1997 19.5953 71.5724 19.812C71.9537 20.0287 72.2527 20.3363 72.4694 20.735C72.686 21.125 72.7944 21.5973 72.7944 22.152V26H71.4554V22.256C71.4554 21.7013 71.3167 21.294 71.0394 21.034C70.762 20.7653 70.3807 20.631 69.8954 20.631C69.3407 20.631 68.8944 20.813 68.5564 21.177C68.227 21.541 68.0624 22.0697 68.0624 22.763V26H66.7234ZM77.6984 26.182C77.0831 26.182 76.5241 26.052 76.0214 25.792C75.5274 25.532 75.1331 25.155 74.8384 24.661C74.5524 24.167 74.4094 23.5733 74.4094 22.88V22.711C74.4094 22.0177 74.5524 21.4283 74.8384 20.943C75.1331 20.449 75.5274 20.072 76.0214 19.812C76.5241 19.5433 77.0831 19.409 77.6984 19.409C78.3137 19.409 78.8381 19.5217 79.2714 19.747C79.7047 19.9723 80.0514 20.2713 80.3114 20.644C80.5801 21.0167 80.7534 21.4283 80.8314 21.879L79.5314 22.152C79.4881 21.866 79.3971 21.606 79.2584 21.372C79.1197 21.138 78.9247 20.9517 78.6734 20.813C78.4221 20.6743 78.1057 20.605 77.7244 20.605C77.3517 20.605 77.0137 20.6917 76.7104 20.865C76.4157 21.0297 76.1817 21.2723 76.0084 21.593C75.8351 21.905 75.7484 22.2863 75.7484 22.737V22.854C75.7484 23.3047 75.8351 23.6903 76.0084 24.011C76.1817 24.3317 76.4157 24.5743 76.7104 24.739C77.0137 24.9037 77.3517 24.986 77.7244 24.986C78.2877 24.986 78.7167 24.843 79.0114 24.557C79.3061 24.2623 79.4924 23.8897 79.5704 23.439L80.8704 23.738C80.7664 24.18 80.5801 24.5873 80.3114 24.96C80.0514 25.3327 79.7047 25.6317 79.2714 25.857C78.8381 26.0737 78.3137 26.182 77.6984 26.182ZM85.3528 26.182C84.7028 26.182 84.1351 26.0477 83.6498 25.779C83.1644 25.5017 82.7831 25.116 82.5058 24.622C82.2371 24.1193 82.1028 23.5387 82.1028 22.88V22.724C82.1028 22.0567 82.2371 21.476 82.5058 20.982C82.7744 20.4793 83.1471 20.0937 83.6238 19.825C84.1091 19.5477 84.6681 19.409 85.3008 19.409C85.9161 19.409 86.4534 19.5477 86.9128 19.825C87.3808 20.0937 87.7448 20.4707 88.0048 20.956C88.2648 21.4413 88.3948 22.009 88.3948 22.659V23.166H83.4678C83.4851 23.7293 83.6714 24.18 84.0268 24.518C84.3908 24.8473 84.8414 25.012 85.3788 25.012C85.8814 25.012 86.2584 24.8993 86.5098 24.674C86.7698 24.4487 86.9691 24.1887 87.1078 23.894L88.2128 24.466C88.0914 24.7087 87.9138 24.9643 87.6798 25.233C87.4544 25.5017 87.1554 25.727 86.7828 25.909C86.4101 26.091 85.9334 26.182 85.3528 26.182ZM83.4808 22.139H87.0298C86.9951 21.6537 86.8218 21.2767 86.5098 21.008C86.1978 20.7307 85.7904 20.592 85.2878 20.592C84.7851 20.592 84.3734 20.7307 84.0528 21.008C83.7408 21.2767 83.5501 21.6537 83.4808 22.139ZM90.0066 26V19.591H91.3196V20.553H91.5276C91.6489 20.293 91.8656 20.0503 92.1776 19.825C92.4896 19.5997 92.9532 19.487 93.5686 19.487C94.0539 19.487 94.4829 19.5953 94.8556 19.812C95.2369 20.0287 95.5359 20.3363 95.7526 20.735C95.9692 21.125 96.0776 21.5973 96.0776 22.152V26H94.7386V22.256C94.7386 21.7013 94.5999 21.294 94.3226 21.034C94.0452 20.7653 93.6639 20.631 93.1786 20.631C92.6239 20.631 92.1776 20.813 91.8396 21.177C91.5102 21.541 91.3456 22.0697 91.3456 22.763V26H90.0066ZM100.232 26C99.8419 26 99.5299 25.883 99.2959 25.649C99.0705 25.415 98.9579 25.103 98.9579 24.713V20.722H97.1899V19.591H98.9579V17.472H100.297V19.591H102.208V20.722H100.297V24.479C100.297 24.739 100.418 24.869 100.661 24.869H102V26H100.232ZM103.781 26V19.591H105.12V26H103.781ZM104.457 18.72C104.197 18.72 103.976 18.6377 103.794 18.473C103.621 18.2997 103.534 18.0787 103.534 17.81C103.534 17.5413 103.621 17.3247 103.794 17.16C103.976 16.9867 104.197 16.9 104.457 16.9C104.726 16.9 104.947 16.9867 105.12 17.16C105.293 17.3247 105.38 17.5413 105.38 17.81C105.38 18.0787 105.293 18.2997 105.12 18.473C104.947 18.6377 104.726 18.72 104.457 18.72ZM108.589 26L106.431 19.591H107.848L109.551 25.012H109.759L111.462 19.591H112.879L110.721 26H108.589ZM114.178 26V19.591H115.517V26H114.178ZM114.854 18.72C114.594 18.72 114.373 18.6377 114.191 18.473C114.018 18.2997 113.931 18.0787 113.931 17.81C113.931 17.5413 114.018 17.3247 114.191 17.16C114.373 16.9867 114.594 16.9 114.854 16.9C115.123 16.9 115.344 16.9867 115.517 17.16C115.691 17.3247 115.777 17.5413 115.777 17.81C115.777 18.0787 115.691 18.2997 115.517 18.473C115.344 18.6377 115.123 18.72 114.854 18.72ZM117.245 26V24.362L121.028 20.904V20.722H117.375V19.591H122.484V21.242L118.688 24.7V24.869H122.588V26H117.245ZM127.006 26.182C126.356 26.182 125.788 26.0477 125.303 25.779C124.818 25.5017 124.436 25.116 124.159 24.622C123.89 24.1193 123.756 23.5387 123.756 22.88V22.724C123.756 22.0567 123.89 21.476 124.159 20.982C124.428 20.4793 124.8 20.0937 125.277 19.825C125.762 19.5477 126.321 19.409 126.954 19.409C127.569 19.409 128.107 19.5477 128.566 19.825C129.034 20.0937 129.398 20.4707 129.658 20.956C129.918 21.4413 130.048 22.009 130.048 22.659V23.166H125.121C125.138 23.7293 125.325 24.18 125.68 24.518C126.044 24.8473 126.495 25.012 127.032 25.012C127.535 25.012 127.912 24.8993 128.163 24.674C128.423 24.4487 128.622 24.1887 128.761 23.894L129.866 24.466C129.745 24.7087 129.567 24.9643 129.333 25.233C129.108 25.5017 128.809 25.727 128.436 25.909C128.063 26.091 127.587 26.182 127.006 26.182ZM125.134 22.139H128.683C128.648 21.6537 128.475 21.2767 128.163 21.008C127.851 20.7307 127.444 20.592 126.941 20.592C126.438 20.592 126.027 20.7307 125.706 21.008C125.394 21.2767 125.203 21.6537 125.134 22.139ZM134.312 26.182C133.783 26.182 133.294 26.052 132.843 25.792C132.392 25.532 132.028 25.1593 131.751 24.674C131.482 24.18 131.348 23.5863 131.348 22.893V22.698C131.348 22.0133 131.482 21.424 131.751 20.93C132.02 20.436 132.379 20.059 132.83 19.799C133.281 19.539 133.775 19.409 134.312 19.409C134.728 19.409 135.075 19.461 135.352 19.565C135.638 19.669 135.872 19.8033 136.054 19.968C136.236 20.124 136.375 20.2887 136.47 20.462H136.678V16.9H138.017V26H136.704V25.09H136.496C136.331 25.3673 136.08 25.6187 135.742 25.844C135.413 26.0693 134.936 26.182 134.312 26.182ZM134.689 25.012C135.27 25.012 135.746 24.8257 136.119 24.453C136.5 24.0803 136.691 23.5473 136.691 22.854V22.737C136.691 22.0523 136.505 21.5237 136.132 21.151C135.759 20.7783 135.278 20.592 134.689 20.592C134.117 20.592 133.64 20.7783 133.259 21.151C132.886 21.5237 132.7 22.0523 132.7 22.737V22.854C132.7 23.5473 132.886 24.0803 133.259 24.453C133.64 24.8257 134.117 25.012 134.689 25.012ZM12.2278 42.182C11.5778 42.182 11.0101 42.0477 10.5248 41.779C10.0394 41.5017 9.65809 41.116 9.38076 40.622C9.11209 40.1193 8.97776 39.5387 8.97776 38.88V38.724C8.97776 38.0567 9.11209 37.476 9.38076 36.982C9.64942 36.4793 10.0221 36.0937 10.4988 35.825C10.9841 35.5477 11.5431 35.409 12.1758 35.409C12.7911 35.409 13.3284 35.5477 13.7878 35.825C14.2558 36.0937 14.6198 36.4707 14.8798 36.956C15.1398 37.4413 15.2698 38.009 15.2698 38.659V39.166H10.3428C10.3601 39.7293 10.5464 40.18 10.9018 40.518C11.2658 40.8473 11.7164 41.012 12.2538 41.012C12.7564 41.012 13.1334 40.8993 13.3848 40.674C13.6448 40.4487 13.8441 40.1887 13.9828 39.894L15.0878 40.466C14.9664 40.7087 14.7888 40.9643 14.5548 41.233C14.3294 41.5017 14.0304 41.727 13.6578 41.909C13.2851 42.091 12.8084 42.182 12.2278 42.182ZM10.3558 38.139H13.9048C13.8701 37.6537 13.6968 37.2767 13.3848 37.008C13.0728 36.7307 12.6654 36.592 12.1628 36.592C11.6601 36.592 11.2484 36.7307 10.9278 37.008C10.6158 37.2767 10.4251 37.6537 10.3558 38.139ZM16.8816 42V35.591H18.1946V36.553H18.4026C18.5239 36.293 18.7406 36.0503 19.0526 35.825C19.3646 35.5997 19.8282 35.487 20.4436 35.487C20.9289 35.487 21.3579 35.5953 21.7306 35.812C22.1119 36.0287 22.4109 36.3363 22.6276 36.735C22.8442 37.125 22.9526 37.5973 22.9526 38.152V42H21.6136V38.256C21.6136 37.7013 21.4749 37.294 21.1976 37.034C20.9202 36.7653 20.5389 36.631 20.0536 36.631C19.4989 36.631 19.0526 36.813 18.7146 37.177C18.3852 37.541 18.2206 38.0697 18.2206 38.763V42H16.8816ZM47.4699 38.828V38.633C47.4699 37.957 47.6043 37.3807 47.8729 36.904C48.1503 36.4273 48.5143 36.059 48.9649 35.799C49.4156 35.539 49.9096 35.409 50.4469 35.409C51.0709 35.409 51.5476 35.526 51.8769 35.76C52.2149 35.994 52.4619 36.2453 52.6179 36.514H52.8259V35.591H54.1259V43.313C54.1259 43.703 54.0089 44.015 53.7749 44.249C53.5496 44.483 53.2376 44.6 52.8389 44.6H48.5229V43.43H52.4229C52.6743 43.43 52.7999 43.3 52.7999 43.04V40.999H52.5919C52.4966 41.155 52.3623 41.3153 52.1889 41.48C52.0156 41.6447 51.7859 41.779 51.4999 41.883C51.2226 41.987 50.8716 42.039 50.4469 42.039C49.9096 42.039 49.4113 41.9133 48.9519 41.662C48.5013 41.402 48.1416 41.0337 47.8729 40.557C47.6043 40.0717 47.4699 39.4953 47.4699 38.828ZM50.8109 40.869C51.3916 40.869 51.8683 40.687 52.2409 40.323C52.6223 39.9503 52.8129 39.439 52.8129 38.789V38.672C52.8129 38.0047 52.6266 37.4933 52.2539 37.138C51.8813 36.774 51.4003 36.592 50.8109 36.592C50.2389 36.592 49.7623 36.774 49.3809 37.138C49.0083 37.4933 48.8219 38.0047 48.8219 38.672V38.789C48.8219 39.439 49.0083 39.9503 49.3809 40.323C49.7623 40.687 50.2389 40.869 50.8109 40.869ZM59.0354 42.182C58.3854 42.182 57.8177 42.0477 57.3324 41.779C56.847 41.5017 56.4657 41.116 56.1884 40.622C55.9197 40.1193 55.7854 39.5387 55.7854 38.88V38.724C55.7854 38.0567 55.9197 37.476 56.1884 36.982C56.457 36.4793 56.8297 36.0937 57.3064 35.825C57.7917 35.5477 58.3507 35.409 58.9834 35.409C59.5987 35.409 60.136 35.5477 60.5954 35.825C61.0634 36.0937 61.4274 36.4707 61.6874 36.956C61.9474 37.4413 62.0774 38.009 62.0774 38.659V39.166H57.1504C57.1677 39.7293 57.354 40.18 57.7094 40.518C58.0734 40.8473 58.524 41.012 59.0614 41.012C59.564 41.012 59.941 40.8993 60.1924 40.674C60.4524 40.4487 60.6517 40.1887 60.7904 39.894L61.8954 40.466C61.774 40.7087 61.5964 40.9643 61.3624 41.233C61.137 41.5017 60.838 41.727 60.4654 41.909C60.0927 42.091 59.616 42.182 59.0354 42.182ZM57.1634 38.139H60.7124C60.6777 37.6537 60.5044 37.2767 60.1924 37.008C59.8804 36.7307 59.473 36.592 58.9704 36.592C58.4677 36.592 58.056 36.7307 57.7354 37.008C57.4234 37.2767 57.2327 37.6537 57.1634 38.139ZM63.6892 42V35.591H65.0022V36.553H65.2102C65.3315 36.293 65.5482 36.0503 65.8602 35.825C66.1722 35.5997 66.6358 35.487 67.2512 35.487C67.7365 35.487 68.1655 35.5953 68.5382 35.812C68.9195 36.0287 69.2185 36.3363 69.4352 36.735C69.6518 37.125 69.7602 37.5973 69.7602 38.152V42H68.4212V38.256C68.4212 37.7013 68.2825 37.294 68.0052 37.034C67.7278 36.7653 67.3465 36.631 66.8612 36.631C66.3065 36.631 65.8602 36.813 65.5222 37.177C65.1928 37.541 65.0282 38.0697 65.0282 38.763V42H63.6892ZM73.9145 42C73.5245 42 73.2125 41.883 72.9785 41.649C72.7532 41.415 72.6405 41.103 72.6405 40.713V36.722H70.8725V35.591H72.6405V33.472H73.9795V35.591H75.8905V36.722H73.9795V40.479C73.9795 40.739 74.1008 40.869 74.3435 40.869H75.6825V42H73.9145ZM80.0896 42.182C79.2749 42.182 78.5989 42 78.0616 41.636C77.5243 41.272 77.1949 40.7217 77.0736 39.985L78.3216 39.686C78.3909 40.0413 78.5079 40.323 78.6726 40.531C78.8373 40.739 79.0409 40.8863 79.2836 40.973C79.5349 41.0597 79.8036 41.103 80.0896 41.103C80.5143 41.103 80.8393 41.0207 81.0646 40.856C81.2986 40.6913 81.4156 40.479 81.4156 40.219C81.4156 39.959 81.3073 39.7683 81.0906 39.647C80.8739 39.5257 80.5533 39.426 80.1286 39.348L79.6866 39.27C79.2533 39.192 78.8589 39.0793 78.5036 38.932C78.1483 38.7847 77.8666 38.581 77.6586 38.321C77.4506 38.061 77.3466 37.7273 77.3466 37.32C77.3466 36.7133 77.5719 36.2453 78.0226 35.916C78.4733 35.578 79.0713 35.409 79.8166 35.409C80.5359 35.409 81.1253 35.5737 81.5846 35.903C82.0526 36.2237 82.3559 36.6613 82.4946 37.216L81.2466 37.567C81.1686 37.177 81.0039 36.904 80.7526 36.748C80.5013 36.5833 80.1893 36.501 79.8166 36.501C79.4526 36.501 79.1666 36.5703 78.9586 36.709C78.7506 36.839 78.6466 37.0253 78.6466 37.268C78.6466 37.528 78.7463 37.7187 78.9456 37.84C79.1536 37.9613 79.4309 38.0523 79.7776 38.113L80.2326 38.191C80.6919 38.269 81.1123 38.3773 81.4936 38.516C81.8749 38.6547 82.1739 38.854 82.3906 39.114C82.6159 39.374 82.7286 39.7207 82.7286 40.154C82.7286 40.7953 82.4903 41.2937 82.0136 41.649C81.5369 42.0043 80.8956 42.182 80.0896 42.182ZM87.5681 42V32.9H90.2721L92.7421 41.064H92.9501V32.9H94.3411V42H91.6371L89.1671 33.823H88.9591V42H87.5681ZM99.216 42.182C98.566 42.182 97.9984 42.0477 97.513 41.779C97.0277 41.5017 96.6464 41.116 96.369 40.622C96.1004 40.1193 95.966 39.5387 95.966 38.88V38.724C95.966 38.0567 96.1004 37.476 96.369 36.982C96.6377 36.4793 97.0104 36.0937 97.487 35.825C97.9724 35.5477 98.5314 35.409 99.164 35.409C99.7794 35.409 100.317 35.5477 100.776 35.825C101.244 36.0937 101.608 36.4707 101.868 36.956C102.128 37.4413 102.258 38.009 102.258 38.659V39.166H97.331C97.3484 39.7293 97.5347 40.18 97.89 40.518C98.254 40.8473 98.7047 41.012 99.242 41.012C99.7447 41.012 100.122 40.8993 100.373 40.674C100.633 40.4487 100.832 40.1887 100.971 39.894L102.076 40.466C101.955 40.7087 101.777 40.9643 101.543 41.233C101.318 41.5017 101.019 41.727 100.646 41.909C100.273 42.091 99.7967 42.182 99.216 42.182ZM97.344 38.139H100.893C100.858 37.6537 100.685 37.2767 100.373 37.008C100.061 36.7307 99.6537 36.592 99.151 36.592C98.6484 36.592 98.2367 36.7307 97.916 37.008C97.604 37.2767 97.4134 37.6537 97.344 38.139ZM106.034 42C105.644 42 105.332 41.883 105.098 41.649C104.872 41.415 104.76 41.103 104.76 40.713V36.722H102.992V35.591H104.76V33.472H106.099V35.591H108.01V36.722H106.099V40.479C106.099 40.739 106.22 40.869 106.463 40.869H107.802V42H106.034ZM110.285 42L109.193 35.591H110.532L111.338 41.103H111.546L112.664 35.591H114.835L115.94 41.103H116.148L116.954 35.591H118.293L117.201 42H114.952L113.847 36.501H113.639L112.534 42H110.285ZM122.805 42.182C122.164 42.182 121.592 42.052 121.089 41.792C120.595 41.5233 120.205 41.142 119.919 40.648C119.633 40.154 119.49 39.569 119.49 38.893V38.698C119.49 38.022 119.633 37.4413 119.919 36.956C120.205 36.462 120.595 36.0807 121.089 35.812C121.592 35.5433 122.164 35.409 122.805 35.409C123.447 35.409 124.019 35.5433 124.521 35.812C125.024 36.0807 125.418 36.462 125.704 36.956C125.99 37.4413 126.133 38.022 126.133 38.698V38.893C126.133 39.569 125.99 40.154 125.704 40.648C125.418 41.142 125.024 41.5233 124.521 41.792C124.019 42.052 123.447 42.182 122.805 42.182ZM122.805 40.986C123.395 40.986 123.871 40.7997 124.235 40.427C124.608 40.0457 124.794 39.5213 124.794 38.854V38.737C124.794 38.0697 124.612 37.5497 124.248 37.177C123.884 36.7957 123.403 36.605 122.805 36.605C122.225 36.605 121.748 36.7957 121.375 37.177C121.011 37.5497 120.829 38.0697 120.829 38.737V38.854C120.829 39.5213 121.011 40.0457 121.375 40.427C121.748 40.7997 122.225 40.986 122.805 40.986ZM127.801 42V35.591H129.114V36.345H129.322C129.426 36.0763 129.59 35.8813 129.816 35.76C130.05 35.63 130.336 35.565 130.674 35.565H131.441V36.774H130.622C130.188 36.774 129.833 36.8953 129.556 37.138C129.278 37.372 129.14 37.736 129.14 38.23V42H127.801ZM132.828 42V32.9H134.167V38.087H134.375L136.897 35.591H138.678L135.441 38.698L138.782 42H137.014L134.375 39.335H134.167V42H132.828Z" fill="black"/>
    <path d="M3.81503 42.182C3.16503 42.182 2.58436 42.0433 2.07303 41.766C1.5617 41.48 1.1587 41.064 0.864031 40.518C0.569365 39.972 0.422031 39.3047 0.422031 38.516V36.384C0.422031 35.1967 0.747031 34.291 1.39703 33.667C2.04703 33.0343 2.9267 32.718 4.03603 32.718C5.12803 32.718 5.9687 33.017 6.55803 33.615C7.14736 34.2043 7.44203 34.9973 7.44203 35.994V36.059H6.05103V35.955C6.05103 35.5823 5.97736 35.2487 5.83003 34.954C5.6827 34.6507 5.4617 34.4123 5.16703 34.239C4.87236 34.0657 4.49536 33.979 4.03603 33.979C3.3427 33.979 2.80103 34.1913 2.41103 34.616C2.02103 35.032 1.82603 35.6127 1.82603 36.358V38.542C1.82603 39.2787 2.02103 39.8637 2.41103 40.297C2.80103 40.7217 3.34703 40.934 4.04903 40.934C4.74236 40.934 5.24937 40.7433 5.57003 40.362C5.8907 39.9807 6.05103 39.4867 6.05103 38.88V38.711H3.60703V37.502H7.44203V42H6.14203V41.077H5.93403C5.85603 41.2417 5.73903 41.4107 5.58303 41.584C5.4357 41.7573 5.21903 41.9003 4.93303 42.013C4.6557 42.1257 4.28303 42.182 3.81503 42.182ZM24.1646 42L26.7646 32.9H29.2346L31.8216 42H30.3786L29.7806 39.855H26.2186L25.6206 42H24.1646ZM26.5696 38.555H29.4296L28.1036 33.771H27.8956L26.5696 38.555ZM33.0935 42V35.591H34.4325V42H33.0935ZM33.7695 34.72C33.5095 34.72 33.2885 34.6377 33.1065 34.473C32.9331 34.2997 32.8465 34.0787 32.8465 33.81C32.8465 33.5413 32.9331 33.3247 33.1065 33.16C33.2885 32.9867 33.5095 32.9 33.7695 32.9C34.0381 32.9 34.2591 32.9867 34.4325 33.16C34.6058 33.3247 34.6925 33.5413 34.6925 33.81C34.6925 34.0787 34.6058 34.2997 34.4325 34.473C34.2591 34.6377 34.0381 34.72 33.7695 34.72ZM38.8531 42L41.4531 32.9H43.9231L46.5101 42H45.0671L44.4691 39.855H40.9071L40.3091 42H38.8531ZM41.2581 38.555H44.1181L42.7921 33.771H42.5841L41.2581 38.555Z" fill="#D43327"/>
</svg>