<svg width="425" height="102" viewBox="0 0 425 102" fill="none" xmlns="http://www.w3.org/2000/svg">
    <path d="M85.6453 14.4V18H71.2453V-1.43051e-06H85.6453V3.6H74.8453V14.4H85.6453ZM89.2453 3.6V14.4H85.6453V3.6H89.2453ZM110.855 -1.43051e-06V3.6H96.4547V-1.43051e-06H110.855ZM96.4547 3.6V7.2H107.255V10.8H96.4547V14.4H92.8547V3.6H96.4547ZM96.4547 14.4H110.855V18H96.4547V14.4ZM128.864 3.6H118.064V-1.43051e-06H128.864V3.6ZM118.064 3.6V14.4H114.464V3.6H118.064ZM132.464 3.6V7.2H128.864V3.6H132.464ZM128.864 14.4V10.8H132.464V14.4H128.864ZM118.064 14.4H128.864V18H118.064V14.4ZM154.073 -1.43051e-06V3.6H139.673V-1.43051e-06H154.073ZM139.673 3.6V7.2H150.473V10.8H139.673V14.4H136.073V3.6H139.673ZM139.673 14.4H154.073V18H139.673V14.4ZM164.883 3.6H161.283V18H157.683V-1.43051e-06H164.883V3.6ZM175.683 -1.43051e-06V18H172.083V10.8H168.483V7.2H172.083V-1.43051e-06H175.683ZM168.483 7.2H164.883V3.6H168.483V7.2ZM196.097 -1.43051e-06V3.6H188.897V18H185.297V3.6H178.097V-1.43051e-06H196.097ZM212.911 10.8V14.4H216.511V18H209.311V14.4H202.111V18H198.511V-1.43051e-06H212.911V3.6H202.111V10.8H212.911ZM216.511 3.6V10.8H212.911V3.6H216.511ZM223.72 3.6V-1.43051e-06H234.52V3.6H223.72ZM238.12 3.6V18H234.52V14.4H223.72V18H220.12V3.6H223.72V10.8H234.52V3.6H238.12ZM245.33 14.4H241.73V-1.43051e-06H245.33V14.4ZM259.73 14.4V18H245.33V14.4H259.73ZM280.144 -1.43051e-06V3.6H272.944V14.4H280.144V18H262.144V14.4H269.344V3.6H262.144V-1.43051e-06H280.144ZM301.753 -1.43051e-06V7.2H298.153V3.6H283.753V-1.43051e-06H301.753ZM298.153 7.2V10.8H287.353V7.2H298.153ZM287.353 10.8V14.4H301.753V18H283.753V10.8H287.353ZM323.363 -1.43051e-06V3.6H308.963V-1.43051e-06H323.363ZM308.963 3.6V7.2H319.763V10.8H308.963V14.4H305.363V3.6H308.963ZM308.963 14.4H323.363V18H308.963V14.4ZM341.372 14.4V18H326.972V-1.43051e-06H341.372V3.6H330.572V14.4H341.372ZM344.972 3.6V14.4H341.372V3.6H344.972ZM366.572 3.6V-1.43051e-06H377.372V3.6H366.572ZM380.972 3.6V18H377.372V14.4H366.572V18H362.972V3.6H366.572V10.8H377.372V3.6H380.972ZM391.781 3.6H388.181V18H384.581V-1.43051e-06H391.781V3.6ZM402.581 -1.43051e-06V18H398.981V10.8H395.381V7.2H398.981V-1.43051e-06H402.581ZM395.381 7.2H391.781V3.6H395.381V7.2ZM420.591 14.4V18H406.191V-1.43051e-06H420.591V3.6H409.791V14.4H420.591ZM424.191 3.6V14.4H420.591V3.6H424.191ZM188.878 42V45.6H181.678V56.4H188.878V60H170.878V56.4H178.078V45.6H170.878V42H188.878ZM199.688 45.6H196.088V60H192.488V42H199.688V45.6ZM210.488 42V60H206.888V52.8H203.288V49.2H206.888V42H210.488ZM203.288 49.2H199.688V45.6H203.288V49.2ZM228.497 45.6H217.697V42H228.497V45.6ZM217.697 45.6V56.4H214.097V45.6H217.697ZM232.097 45.6V49.2H228.497V45.6H232.097ZM228.497 56.4V52.8H232.097V56.4H228.497ZM217.697 56.4H228.497V60H217.697V56.4ZM253.706 42V45.6H239.306V42H253.706ZM239.306 45.6V49.2H250.106V52.8H239.306V56.4H235.706V45.6H239.306ZM239.306 56.4H253.706V60H239.306V56.4ZM264.516 45.6H260.916V60H257.316V42H264.516V45.6ZM275.316 42V60H271.716V52.8H268.116V49.2H271.716V42H275.316ZM268.116 49.2H264.516V45.6H268.116V49.2ZM295.73 42V45.6H288.53V60H284.93V45.6H277.73V42H295.73ZM316.144 42V45.6H308.944V56.4H316.144V60H298.144V56.4H305.344V45.6H298.144V42H316.144ZM323.353 52.8H319.753V42H323.353V52.8ZM337.753 42V52.8H334.153V42H337.753ZM326.953 56.4H323.353V52.8H326.953V56.4ZM334.153 52.8V56.4H330.553V52.8H334.153ZM330.553 56.4V60H326.953V56.4H330.553ZM359.363 42V45.6H352.163V56.4H359.363V60H341.363V56.4H348.563V45.6H341.363V42H359.363ZM380.972 42V49.2H377.372V45.6H362.972V42H380.972ZM377.372 49.2V52.8H366.572V49.2H377.372ZM366.572 52.8V56.4H380.972V60H362.972V52.8H366.572ZM402.581 42V45.6H388.181V42H402.581ZM388.181 45.6V49.2H398.981V52.8H388.181V56.4H384.581V45.6H388.181ZM388.181 56.4H402.581V60H388.181V56.4ZM420.591 56.4V60H406.191V42H420.591V45.6H409.791V56.4H420.591ZM424.191 45.6V56.4H420.591V45.6H424.191ZM40.05 84V87.6H25.65V84H40.05ZM25.65 87.6V91.2H36.45V94.8H25.65V98.4H22.05V87.6H25.65ZM25.65 98.4H40.05V102H25.65V98.4ZM50.8594 87.6H47.2594V102H43.6594V84H50.8594V87.6ZM61.6594 84V102H58.0594V94.8H54.4594V91.2H58.0594V84H61.6594ZM54.4594 91.2H50.8594V87.6H54.4594V91.2Z" fill="black"/>
    <path d="M18.4406 84V87.6H4.04063V84H18.4406ZM4.04063 87.6V98.4H0.440625V87.6H4.04063ZM4.04063 98.4H14.8406V94.8H7.64063V91.2H18.4406V102H4.04063V98.4ZM68.8688 87.6V84H79.6688V87.6H68.8688ZM83.2688 87.6V102H79.6688V98.4H68.8688V102H65.2688V87.6H68.8688V94.8H79.6688V87.6H83.2688ZM104.878 84V87.6H97.6781V98.4H104.878V102H86.8781V98.4H94.0781V87.6H86.8781V84H104.878ZM126.478 87.6V84H137.278V87.6H126.478ZM140.878 87.6V102H137.278V98.4H126.478V102H122.878V87.6H126.478V94.8H137.278V87.6H140.878Z" fill="#D43327"/>
    <path d="M162.488 84V87.6H148.088V84H162.488ZM148.088 87.6V98.4H144.488V87.6H148.088ZM148.088 98.4H158.888V94.8H151.688V91.2H162.488V102H148.088V98.4ZM184.097 84V87.6H169.697V84H184.097ZM169.697 87.6V91.2H180.497V94.8H169.697V98.4H166.097V87.6H169.697ZM169.697 98.4H184.097V102H169.697V98.4ZM194.906 87.6H191.306V102H187.706V84H194.906V87.6ZM205.706 84V102H202.106V94.8H198.506V91.2H202.106V84H205.706ZM198.506 91.2H194.906V87.6H198.506V91.2ZM226.12 84V87.6H218.92V102H215.32V87.6H208.12V84H226.12ZM246.534 84V87.6H232.134V84H246.534ZM232.134 87.6V91.2H246.534V98.4H242.934V94.8H228.534V87.6H232.134ZM242.934 98.4V102H228.534V98.4H242.934ZM271.734 87.6H268.134V102H264.534V84H271.734V87.6ZM282.534 84V102H278.934V94.8H275.334V91.2H278.934V84H282.534ZM275.334 91.2H271.734V87.6H275.334V91.2ZM304.144 84V87.6H289.744V84H304.144ZM289.744 87.6V91.2H300.544V94.8H289.744V98.4H286.144V87.6H289.744ZM289.744 98.4H304.144V102H289.744V98.4ZM324.558 84V87.6H317.358V102H313.758V87.6H306.558V84H324.558ZM330.572 94.8H326.972V84H330.572V94.8ZM344.972 94.8H341.372V84H344.972V94.8ZM359.372 84V94.8H355.772V84H359.372ZM334.172 98.4H330.572V94.8H334.172V98.4ZM341.372 94.8V98.4H337.772V94.8H341.372ZM348.572 98.4H344.972V94.8H348.572V98.4ZM355.772 94.8V98.4H352.172V94.8H355.772ZM337.772 98.4V102H334.172V98.4H337.772ZM352.172 98.4V102H348.572V98.4H352.172ZM366.572 87.6V84H377.372V87.6H366.572ZM366.572 98.4H362.972V87.6H366.572V98.4ZM380.972 87.6V98.4H377.372V87.6H380.972ZM377.372 98.4V102H366.572V98.4H377.372ZM398.981 94.8V98.4H402.581V102H395.381V98.4H388.181V102H384.581V84H398.981V87.6H388.181V94.8H398.981ZM402.581 87.6V94.8H398.981V87.6H402.581ZM416.991 91.2V94.8H409.791V102H406.191V84H409.791V91.2H416.991ZM424.191 84V87.6H420.591V84H424.191ZM420.591 87.6V91.2H416.991V87.6H420.591ZM416.991 94.8H420.591V98.4H416.991V94.8ZM420.591 98.4H424.191V102H420.591V98.4Z" fill="#1E1E1E"/>
</svg>
